<?xml version="1.0" encoding="utf-8"?>
<!-- Generator: Adobe Illustrator 18.1.1, SVG Export Plug-In . SVG Version: 6.00 Build 0)  -->
<svg version="1.1" id="Layer_1" xmlns="http://www.w3.org/2000/svg" xmlns:xlink="http://www.w3.org/1999/xlink" x="0px" y="0px"
	 viewBox="0 0 48 48" enable-background="new 0 0 48 48" xml:space="preserve">
<g>
	<path fill="#FFFFFF" d="M5.9,41.9c0,0,0-2.7,0-2.9c0-3.8,5.8-7.3,12.1-8.5c0,0,1.9-1,1.4-2.9c-2-2.4-2.4-5-2.4-5
		c-0.3-0.1-0.8-0.4-1.1-0.8c-0.7-1-1.4-3-1.2-4.5c0.1-1.5,0.5-1,0.6-1.3c-1.3-3.2-0.7-7.2,1-10.1C19.4,0.1,26.4,1.8,27.5,4
		c6.7-1.2,6.4,9.2,5.5,11.9c0,0,0.6,0.1,0.5,2.7c-0.1,2.5-2.3,4.2-2.3,4.2c-0.1,0.7-0.9,2.8-2.3,4.7c-1.1,2.4,1.3,2.9,1.3,2.9
		c6.3,1.2,12,4.7,12,8.5c0,0.3,0,2.9,0,2.9c0,2.5-9.5,5-18.1,5C15.4,46.8,5.9,46,5.9,41.9z"/>
</g>
</svg>
