<?xml version="1.0" encoding="utf-8"?>
<!-- Generator: Adobe Illustrator 18.1.1, SVG Export Plug-In . SVG Version: 6.00 Build 0)  -->
<svg version="1.1" id="Layer_1" xmlns="http://www.w3.org/2000/svg" xmlns:xlink="http://www.w3.org/1999/xlink" x="0px" y="0px"
	 viewBox="0 0 48 48" enable-background="new 0 0 48 48" xml:space="preserve">
<g>
	<path fill="#8DC63F" d="M44.3,37.6h-40c-0.9,0-1.7,0.7-1.7,1.7v5c0,0.9,0.7,1.7,1.7,1.7h40c0.9,0,1.7-0.7,1.7-1.7v-5
		C45.9,38.3,45.2,37.6,44.3,37.6z M40.1,44.2c-1.4,0-2.5-1.1-2.5-2.5c0-1.4,1.1-2.5,2.5-2.5c1.4,0,2.5,1.1,2.5,2.5
		C42.6,43.1,41.5,44.2,40.1,44.2z"/>
	<path fill="#8DC63F" d="M44.3,27.6h-40c-0.9,0-1.7,0.7-1.7,1.7v5c0,0.9,0.7,1.7,1.7,1.7h40c0.9,0,1.7-0.7,1.7-1.7v-5
		C45.9,28.3,45.2,27.6,44.3,27.6z M40.1,34.2c-1.4,0-2.5-1.1-2.5-2.5c0-1.4,1.1-2.5,2.5-2.5c1.4,0,2.5,1.1,2.5,2.5
		C42.6,33.1,41.5,34.2,40.1,34.2z"/>
	<path fill="#8DC63F" d="M4.3,15.9h40c0.6,0,1.1,0.2,1.6,0.4l-3.3-8.8c-1.2-2.6-2.2-5-5-5H10.9c-2.8,0-4,2.4-5,5l-3.3,8.8
		C3.2,16.1,3.7,15.9,4.3,15.9z"/>
	<path fill="#8DC63F" d="M44.3,17.6h-40c-0.9,0-1.7,0.7-1.7,1.7v5c0,0.9,0.7,1.7,1.7,1.7h40c0.9,0,1.7-0.7,1.7-1.7v-5
		C45.9,18.3,45.2,17.6,44.3,17.6z M40.1,24.2c-1.4,0-2.5-1.1-2.5-2.5c0-1.4,1.1-2.5,2.5-2.5c1.4,0,2.5,1.1,2.5,2.5
		C42.6,23.1,41.5,24.2,40.1,24.2z"/>
</g>
</svg>
