<?xml version="1.0" encoding="utf-8"?>
<!-- Generator: Adobe Illustrator 18.1.1, SVG Export Plug-In . SVG Version: 6.00 Build 0)  -->
<svg version="1.1" id="Layer_1" xmlns="http://www.w3.org/2000/svg" xmlns:xlink="http://www.w3.org/1999/xlink" x="0px" y="0px"
	 viewBox="0 0 48 48" enable-background="new 0 0 48 48" xml:space="preserve">
<g>
	<g>
		<polyline fill="none" stroke="#8DC63F" stroke-width="2" stroke-miterlimit="10" points="32.1,39.9 17.6,23.8 32,7.6 		"/>
		<path fill="#8DC63F" d="M4.6,31.8c-0.9,0-1.6-0.7-1.6-1.6V17.3c0-0.9,0.7-1.6,1.6-1.6h11.3c0.9,0,1.6,0.7,1.6,1.6v12.9
			c0,0.9-0.7,1.6-1.6,1.6H4.6z"/>
		<path fill="#8DC63F" d="M32.1,44.8c-0.9,0-1.6-0.7-1.6-1.6v-9.7c0-0.9,0.7-1.6,1.6-1.6h11.3c0.9,0,1.6,0.7,1.6,1.6v9.7
			c0,0.9-0.7,1.6-1.6,1.6H32.1z"/>
		<path fill="#8DC63F" d="M32.1,15.7c-0.9,0-1.6-0.7-1.6-1.6V4.4c0-0.9,0.7-1.6,1.6-1.6h11.3c0.9,0,1.6,0.7,1.6,1.6v9.7
			c0,0.9-0.7,1.6-1.6,1.6H32.1z"/>
	</g>
</g>
</svg>
