<?xml version="1.0" encoding="utf-8"?>
<!-- Generator: Adobe Illustrator 18.1.1, SVG Export Plug-In . SVG Version: 6.00 Build 0)  -->
<svg version="1.1" id="Layer_1" xmlns="http://www.w3.org/2000/svg" xmlns:xlink="http://www.w3.org/1999/xlink" x="0px" y="0px"
	 viewBox="0 0 48 48" enable-background="new 0 0 48 48" xml:space="preserve">
<g>
	<polygon fill="#787783" points="36.4,33 33.6,35.6 28,30.2 30.8,27.5 	"/>
	<path fill="#787783" d="M45.3,38.5c1.2,1.2,1.2,3.1,0,4.3l-1.5,1.4c-1.2,1.2-3.2,1.2-4.4,0l-7.9-7.7c-1.2-1.2-1.2-3.1,0-4.3
		l1.5-1.4c1.2-1.2,3.2-1.2,4.4,0L45.3,38.5z"/>
	<path fill="#787783" d="M19,2.5C9.7,2.5,2.2,9.8,2.2,18.8S9.7,35.1,19,35.1s16.8-7.3,16.8-16.3S28.3,2.5,19,2.5z M19,32
		c-7.6,0-13.7-5.9-13.7-13.3S11.4,5.5,19,5.5s13.7,5.9,13.7,13.3S26.6,32,19,32z"/>
</g>
</svg>
