<?xml version="1.0" encoding="utf-8"?>
<!-- Generator: Adobe Illustrator 18.1.1, SVG Export Plug-In . SVG Version: 6.00 Build 0)  -->
<svg version="1.1" id="Layer_1" xmlns="http://www.w3.org/2000/svg" xmlns:xlink="http://www.w3.org/1999/xlink" x="0px" y="0px"
	 viewBox="0 0 48 48" enable-background="new 0 0 48 48" xml:space="preserve">
<g>
	<g>
		<path fill="#FFFFFF" d="M31.4,32.5v-3.4l-4-0.7c-0.2-1-0.6-1.9-1.1-2.7l2.4-3.4L26.2,20l-3.3,2.4c-0.8-0.5-1.7-0.9-2.7-1.1l-0.7-4
			h-3.4l-0.7,4c-1,0.2-1.9,0.6-2.7,1.1L9.4,20L7,22.4l2.3,3.3c-0.5,0.8-0.9,1.7-1.1,2.7l-4,0.7v3.4l4,0.7c0.2,1,0.6,1.9,1.1,2.7
			L7,39.2l2.4,2.4l3.3-2.3c0.8,0.5,1.7,0.9,2.7,1.1l0.7,4h3.4l0.7-4c1-0.2,1.9-0.6,2.7-1.1l3.3,2.4l2.4-2.4l-2.4-3.3
			c0.5-0.8,0.9-1.7,1.1-2.7L31.4,32.5z M17.8,35.6c-2.6,0-4.7-2.1-4.7-4.7c0-2.6,2.1-4.7,4.7-4.7c2.6,0,4.7,2.1,4.7,4.7
			C22.5,33.4,20.4,35.6,17.8,35.6z"/>
	</g>
	<g>
		<path fill="#FFFFFF" d="M44.5,18.4l1-2.4l-2.7-1.7c0.1-0.7,0.1-1.5,0-2.2l2.7-1.7l-1-2.4l-3,0.7c-0.4-0.6-1-1.1-1.6-1.6l0.7-3
			l-2.4-1l-1.6,2.6c-0.8-0.1-1.5-0.1-2.2,0l-1.6-2.6l-2.4,1l0.7,3c-0.6,0.4-1.1,1-1.6,1.6l-3-0.7l-1,2.4L28,12
			c-0.1,0.8-0.1,1.5,0,2.2l-2.6,1.6l1,2.4l3-0.7c0.4,0.6,1,1.1,1.6,1.6l-0.7,3l2.4,1l1.7-2.6c0.7,0.1,1.5,0.1,2.2,0l1.7,2.6l2.4-1
			l-0.7-3c0.6-0.4,1.1-1,1.6-1.6L44.5,18.4z M34,16.5c-1.8-0.8-2.7-2.9-1.9-4.7c0.8-1.8,2.9-2.7,4.7-1.9c1.8,0.8,2.7,2.9,1.9,4.7
			C38,16.4,35.9,17.3,34,16.5z"/>
	</g>
</g>
</svg>
