<?xml version="1.0" encoding="utf-8"?>
<!-- Generator: Adobe Illustrator 18.1.1, SVG Export Plug-In . SVG Version: 6.00 Build 0)  -->
<svg version="1.1" id="Layer_1" xmlns="http://www.w3.org/2000/svg" xmlns:xlink="http://www.w3.org/1999/xlink" x="0px" y="0px"
	 viewBox="0 0 48 48" enable-background="new 0 0 48 48" xml:space="preserve">
<g>
	<path fill="none" stroke="#FFFFFF" stroke-miterlimit="10" d="M9,44.7c-1,0-1.7-0.8-1.7-1.7V4.8c0-1,0.8-1.7,1.7-1.7h31.2
		c1,0,1.7,0.8,1.7,1.7V43c0,1-0.8,1.7-1.7,1.7H9z"/>
	<rect x="33.3" y="20.4" fill="#FFFFFF" width="3.5" height="3.5"/>
	<rect x="12.5" y="20.4" fill="#FFFFFF" width="17.3" height="3.5"/>
	<rect x="12.5" y="27.4" fill="#FFFFFF" width="10.4" height="3.5"/>
	<rect x="12.5" y="34.3" fill="#FFFFFF" width="13.9" height="3.5"/>
	<rect x="33.3" y="27.4" fill="#FFFFFF" width="3.5" height="3.5"/>
	<rect x="33.3" y="34.3" fill="#FFFFFF" width="3.5" height="3.5"/>
	<path fill="#FFFFFF" d="M35,10H14.2c-1,0-1.7,0.8-1.7,1.7v1.7c0,1,0.8,1.7,1.7,1.7H35c1,0,1.7-0.8,1.7-1.7v-1.7
		C36.7,10.8,35.9,10,35,10z"/>
</g>
</svg>
